<svg width="287" height="119" viewBox="0 0 287 119" fill="none" xmlns="http://www.w3.org/2000/svg">
<path d="M4.40756 5.6H22.2636C27.7836 5.6 31.7676 6.872 34.2156 9.416C36.7116 11.96 37.9596 15.128 37.9596 18.92C37.9596 21.224 37.3116 23.312 36.0156 25.184C34.7196 27.008 32.8956 28.424 30.5436 29.432C33.4716 30.344 35.7276 31.88 37.3116 34.04C38.9436 36.152 39.7596 38.648 39.7596 41.528C39.7596 43.352 39.4716 45.08 38.8956 46.712C38.3196 48.344 37.4316 49.88 36.2316 51.32C35.0316 52.76 33.3276 53.912 31.1196 54.776C28.9116 55.592 26.3436 56 23.4156 56H4.40756V5.6ZM21.0396 26.984C24.5436 26.984 27.2076 26.288 29.0316 24.896C30.8556 23.456 31.7676 21.488 31.7676 18.992C31.7676 13.856 28.7196 11.288 22.6236 11.288H10.6716V26.984H21.0396ZM24.1356 50.24C27.5436 50.24 29.9676 49.448 31.4076 47.864C32.8476 46.28 33.5676 44.312 33.5676 41.96C33.5676 35.768 29.6556 32.672 21.8316 32.672H10.6716V50.24H24.1356ZM41.2716 114H35.2236L12.5436 78C11.6796 76.608 11.0076 75.432 10.5276 74.472C10.6236 75.912 10.6716 77.088 10.6716 78V114H4.40756V63.6H10.7436L33.0636 99.456C33.8316 100.704 34.5276 101.952 35.1516 103.2C35.0556 101.472 35.0076 100.248 35.0076 99.528V63.6H41.2716V114Z" fill="#001AFF"/>
<path d="M45.5207 56V5.6H51.7847V49.952H76.5527V56H45.5207ZM111.355 56L107.035 43.688H87.0186L82.7706 56H76.2186L94.0746 5.6H99.9066L117.763 56H111.355ZM105.091 38.144L98.6106 19.496C97.7946 17.144 97.2666 15.44 97.0266 14.384C96.4986 16.256 95.9706 17.96 95.4426 19.496L88.8906 38.144H105.091ZM157.791 56H151.743L129.063 20C128.199 18.608 127.527 17.432 127.047 16.472C127.143 17.912 127.191 19.088 127.191 20V56H120.927V5.6H127.263L149.583 41.456C150.351 42.704 151.047 43.952 151.671 45.2C151.575 43.472 151.527 42.248 151.527 41.528V5.6H157.791V56ZM184.486 56.864C180.838 56.864 177.622 56.12 174.838 54.632C172.054 53.144 169.87 51.128 168.286 48.584C166.702 46.04 165.526 43.28 164.758 40.304C163.99 37.328 163.606 34.16 163.606 30.8C163.606 27.488 163.99 24.344 164.758 21.368C165.574 18.344 166.774 15.584 168.358 13.088C169.99 10.544 172.174 8.528 174.91 7.04C177.694 5.504 180.886 4.736 184.486 4.736C192.358 4.736 197.782 7.76 200.758 13.808L195.142 16.688C193.798 14.672 192.31 13.16 190.678 12.152C189.094 11.096 187.03 10.568 184.486 10.568C181.078 10.568 178.246 11.648 175.99 13.808C173.734 15.968 172.174 18.512 171.31 21.44C170.494 24.32 170.086 27.44 170.086 30.8C170.086 36.32 171.31 41.072 173.758 45.056C176.206 48.992 179.782 50.96 184.486 50.96C189.19 50.96 192.838 48.824 195.43 44.552L201.19 46.712C199.798 49.784 197.71 52.256 194.926 54.128C192.142 55.952 188.662 56.864 184.486 56.864ZM236.271 56V32.816H212.511V56H206.247V5.6H212.511V26.912H236.271V5.6H242.535V56H236.271ZM250.524 56V5.6H280.476V11.504H256.788V26.984H272.412V32.888H256.788V50.024H282.06V56H250.524ZM49.2473 114V63.6H79.1992V69.504H55.5113V84.984H71.1353V90.888H55.5113V108.024H80.7833V114H49.2473ZM86.3559 114V63.6H92.6199V114H86.3559ZM119.971 114.864C116.275 114.864 113.011 114.144 110.179 112.704C107.395 111.216 105.163 109.224 103.483 106.728C101.851 104.232 100.627 101.472 99.8109 98.448C98.9949 95.424 98.5869 92.208 98.5869 88.8C98.5869 85.44 99.0189 82.248 99.8829 79.224C100.747 76.152 102.019 73.392 103.699 70.944C105.379 68.448 107.611 66.456 110.395 64.968C113.227 63.48 116.419 62.736 119.971 62.736C124.243 62.736 127.603 63.528 130.051 65.112C132.547 66.696 134.635 68.856 136.315 71.592L130.699 74.832C129.355 72.864 127.867 71.352 126.235 70.296C124.603 69.192 122.515 68.64 119.971 68.64C117.811 68.64 115.867 69.048 114.139 69.864C112.411 70.68 110.995 71.76 109.891 73.104C108.787 74.4 107.851 75.936 107.083 77.712C106.363 79.488 105.835 81.312 105.499 83.184C105.211 85.008 105.067 86.88 105.067 88.8C105.067 94.464 106.315 99.24 108.811 103.128C111.307 106.968 115.027 108.888 119.971 108.888C123.379 108.888 126.115 107.832 128.179 105.72C130.243 103.56 131.275 100.752 131.275 97.296V95.28H122.131V89.52H137.827V95.568C137.827 101.664 136.147 106.416 132.787 109.824C129.475 113.184 125.203 114.864 119.971 114.864ZM144.18 114V63.6H174.132V69.504H150.444V84.984H166.068V90.888H150.444V108.024H175.716V114H144.18Z" fill="black"/>
<path d="M4.40756 5.6V1.6H0.407563V5.6H4.40756ZM34.2156 9.416L31.3333 12.1895L31.3467 12.2035L31.3603 12.2174L34.2156 9.416ZM36.0156 25.184L39.2763 27.5008L39.2904 27.4809L39.3043 27.4608L36.0156 25.184ZM30.5436 29.432L28.9679 25.7554L19.0018 30.0266L29.354 33.251L30.5436 29.432ZM37.3116 34.04L34.0859 36.4055L34.1157 36.446L34.1464 36.4858L37.3116 34.04ZM38.8956 46.712L35.1236 45.3807L38.8956 46.712ZM36.2316 51.32L33.1587 48.7593L36.2316 51.32ZM31.1196 54.776L32.5062 58.528L32.5418 58.5148L32.5772 58.501L31.1196 54.776ZM4.40756 56H0.407563V60H4.40756V56ZM29.0316 24.896L31.4583 28.0758L31.4844 28.0559L31.5101 28.0355L29.0316 24.896ZM10.6716 11.288V7.288H6.67156V11.288H10.6716ZM10.6716 26.984H6.67156V30.984H10.6716V26.984ZM31.4076 47.864L34.3673 50.5547L31.4076 47.864ZM10.6716 32.672V28.672H6.67156V32.672H10.6716ZM10.6716 50.24H6.67156V54.24H10.6716V50.24ZM4.40756 9.6H22.2636V1.6H4.40756V9.6ZM22.2636 9.6C27.295 9.6 29.9726 10.7755 31.3333 12.1895L37.0979 6.64248C33.5625 2.96852 28.2721 1.6 22.2636 1.6V9.6ZM31.3603 12.2174C33.0723 13.9622 33.9596 16.1016 33.9596 18.92H41.9596C41.9596 14.1544 40.3508 9.95776 37.0708 6.61464L31.3603 12.2174ZM33.9596 18.92C33.9596 20.4208 33.5538 21.7126 32.7268 22.9072L39.3043 27.4608C41.0693 24.9114 41.9596 22.0272 41.9596 18.92H33.9596ZM32.7548 22.8672C31.9432 24.0094 30.743 24.9947 28.9679 25.7554L32.1192 33.1086C35.0481 31.8533 37.4959 30.0066 39.2763 27.5008L32.7548 22.8672ZM29.354 33.251C31.5886 33.9471 33.0791 35.0325 34.0859 36.4055L40.5372 31.6745C38.376 28.7275 35.3545 26.7409 31.7331 25.613L29.354 33.251ZM34.1464 36.4858C35.1933 37.8406 35.7596 39.4587 35.7596 41.528H43.7596C43.7596 37.8373 42.6938 34.4634 40.4767 31.5942L34.1464 36.4858ZM35.7596 41.528C35.7596 42.9232 35.5407 44.199 35.1236 45.3807L42.6675 48.0433C43.4024 45.961 43.7596 43.7808 43.7596 41.528H35.7596ZM35.1236 45.3807C34.7184 46.5288 34.0798 47.6539 33.1587 48.7593L39.3045 53.8807C40.7833 52.1061 41.9207 50.1592 42.6675 48.0433L35.1236 45.3807ZM33.1587 48.7593C32.4901 49.5616 31.4051 50.3689 29.662 51.051L32.5772 58.501C35.25 57.4551 37.573 55.9584 39.3045 53.8807L33.1587 48.7593ZM29.733 51.024C28.0623 51.6415 25.9814 52 23.4156 52V60C26.7058 60 29.7609 59.5425 32.5062 58.528L29.733 51.024ZM23.4156 52H4.40756V60H23.4156V52ZM8.40756 56V5.6H0.407563V56H8.40756ZM21.0396 30.984C24.9833 30.984 28.6552 30.215 31.4583 28.0758L26.6049 21.7162C25.7599 22.361 24.1038 22.984 21.0396 22.984V30.984ZM31.5101 28.0355C34.374 25.7746 35.7676 22.6078 35.7676 18.992H27.7676C27.7676 20.3682 27.3371 21.1374 26.553 21.7565L31.5101 28.0355ZM35.7676 18.992C35.7676 15.6106 34.7317 12.4069 32.0588 10.155C29.5173 8.01363 26.1368 7.288 22.6236 7.288V15.288C25.2063 15.288 26.3979 15.8464 26.9043 16.273C27.2794 16.5891 27.7676 17.2374 27.7676 18.992H35.7676ZM22.6236 7.288H10.6716V15.288H22.6236V7.288ZM6.67156 11.288V26.984H14.6716V11.288H6.67156ZM10.6716 30.984H21.0396V22.984H10.6716V30.984ZM24.1356 54.24C28.0175 54.24 31.8198 53.357 34.3673 50.5547L28.4478 45.1733C28.1153 45.539 27.0696 46.24 24.1356 46.24V54.24ZM34.3673 50.5547C36.545 48.1593 37.5676 45.2007 37.5676 41.96H29.5676C29.5676 43.4233 29.1502 44.4007 28.4478 45.1733L34.3673 50.5547ZM37.5676 41.96C37.5676 37.9661 36.2591 34.345 33.1159 31.8574C30.1511 29.511 26.1634 28.672 21.8316 28.672V36.672C25.3237 36.672 27.2041 37.381 28.1512 38.1306C28.92 38.739 29.5676 39.7619 29.5676 41.96H37.5676ZM21.8316 28.672H10.6716V36.672H21.8316V28.672ZM6.67156 32.672V50.24H14.6716V32.672H6.67156ZM10.6716 54.24H24.1356V46.24H10.6716V54.24ZM45.5207 56H41.5207V60H45.5207V56ZM45.5207 5.6V1.6H41.5207V5.6H45.5207ZM51.7847 5.6H55.7847V1.6H51.7847V5.6ZM51.7847 49.952H47.7847V53.952H51.7847V49.952ZM76.5527 49.952H80.5527V45.952H76.5527V49.952ZM76.5527 56V60H80.5527V56H76.5527ZM49.5207 56V5.6H41.5207V56H49.5207ZM45.5207 9.6H51.7847V1.6H45.5207V9.6ZM47.7847 5.6V49.952H55.7847V5.6H47.7847ZM51.7847 53.952H76.5527V45.952H51.7847V53.952ZM72.5527 49.952V56H80.5527V49.952H72.5527ZM76.5527 52H45.5207V60H76.5527V52ZM111.355 56L107.58 57.3244L108.519 60H111.355V56ZM107.035 43.688L110.809 42.3636L109.87 39.688H107.035V43.688ZM87.0186 43.688V39.688H84.1673L83.2373 42.3834L87.0186 43.688ZM82.7706 56V60H85.6218L86.5518 57.3046L82.7706 56ZM76.2186 56L72.4482 54.6642L70.5578 60H76.2186V56ZM94.0746 5.6V1.6H91.2481L90.3042 4.26421L94.0746 5.6ZM99.9066 5.6L103.677 4.26421L102.733 1.6H99.9066V5.6ZM117.763 56V60H123.423L121.533 54.6642L117.763 56ZM105.091 38.144V42.144H110.715L108.869 36.831L105.091 38.144ZM98.6106 19.496L94.8315 20.8071L94.8322 20.8089L98.6106 19.496ZM97.0266 14.384L100.927 13.4975L93.1768 13.2982L97.0266 14.384ZM95.4426 19.496L99.2164 20.8219L99.2209 20.8091L99.2253 20.7963L95.4426 19.496ZM88.8906 38.144L85.1167 36.8181L83.2454 42.144H88.8906V38.144ZM115.129 54.6756L110.809 42.3636L103.26 45.0124L107.58 57.3244L115.129 54.6756ZM107.035 39.688H87.0186V47.688H107.035V39.688ZM83.2373 42.3834L78.9893 54.6954L86.5518 57.3046L90.7998 44.9926L83.2373 42.3834ZM82.7706 52H76.2186V60H82.7706V52ZM79.9889 57.3358L97.8449 6.93578L90.3042 4.26421L72.4482 54.6642L79.9889 57.3358ZM94.0746 9.6H99.9066V1.6H94.0746V9.6ZM96.1362 6.93578L113.992 57.3358L121.533 54.6642L103.677 4.26421L96.1362 6.93578ZM117.763 52H111.355V60H117.763V52ZM108.869 36.831L102.389 18.183L94.8322 20.8089L101.312 39.457L108.869 36.831ZM102.39 18.1849C101.576 15.8406 101.114 14.3188 100.927 13.4975L93.126 15.2705C93.4194 16.5612 94.0129 18.4473 94.8315 20.8071L102.39 18.1849ZM93.1768 13.2982C92.6653 15.1116 92.1593 16.7427 91.6598 18.1957L99.2253 20.7963C99.7819 19.1773 100.332 17.4004 100.876 15.4698L93.1768 13.2982ZM91.6687 18.1701L85.1167 36.8181L92.6644 39.4699L99.2164 20.8219L91.6687 18.1701ZM88.8906 42.144H105.091V34.144H88.8906V42.144ZM157.791 56V60H161.791V56H157.791ZM151.743 56L148.358 58.1322L149.535 60H151.743V56ZM129.063 20L125.664 22.1094L125.671 22.1208L125.678 22.1322L129.063 20ZM127.047 16.472L130.624 14.6831L123.055 16.7381L127.047 16.472ZM127.191 56V60H131.191V56H127.191ZM120.927 56H116.927V60H120.927V56ZM120.927 5.6V1.6H116.927V5.6H120.927ZM127.263 5.6L130.658 3.48613L129.484 1.6H127.263V5.6ZM149.583 41.456L152.989 39.3596L152.984 39.3509L152.978 39.3421L149.583 41.456ZM151.671 45.2L148.093 46.9889L155.664 44.9781L151.671 45.2ZM151.527 5.6V1.6H147.527V5.6H151.527ZM157.791 5.6H161.791V1.6H157.791V5.6ZM157.791 52H151.743V60H157.791V52ZM155.127 53.8678L132.447 17.8678L125.678 22.1322L148.358 58.1322L155.127 53.8678ZM132.461 17.8906C131.632 16.5547 131.029 15.4926 130.624 14.6831L123.469 18.2609C124.024 19.3714 124.765 20.6613 125.664 22.1094L132.461 17.8906ZM123.055 16.7381C123.149 18.134 123.191 19.2123 123.191 20H131.191C131.191 18.9637 131.137 17.69 131.038 16.2059L123.055 16.7381ZM123.191 20V56H131.191V20H123.191ZM127.191 52H120.927V60H127.191V52ZM124.927 56V5.6H116.927V56H124.927ZM120.927 9.6H127.263V1.6H120.927V9.6ZM123.867 7.71386L146.187 43.5699L152.978 39.3421L130.658 3.48613L123.867 7.71386ZM146.176 43.5524C146.886 44.7054 147.524 45.8509 148.093 46.9889L155.248 43.4111C154.569 42.0531 153.816 40.7026 152.989 39.3596L146.176 43.5524ZM155.664 44.9781C155.568 43.2505 155.527 42.1255 155.527 41.528H147.527C147.527 42.3705 147.581 43.6935 147.677 45.4219L155.664 44.9781ZM155.527 41.528V5.6H147.527V41.528H155.527ZM151.527 9.6H157.791V1.6H151.527V9.6ZM153.791 5.6V56H161.791V5.6H153.791ZM174.838 54.632L176.724 51.1043L174.838 54.632ZM168.286 48.584L164.891 50.6982L168.286 48.584ZM164.758 40.304L168.631 39.3045V39.3045L164.758 40.304ZM164.758 21.368L160.896 20.3259L160.891 20.3472L160.885 20.3685L164.758 21.368ZM168.358 13.088L164.992 10.9282L164.986 10.9364L164.981 10.9447L168.358 13.088ZM174.91 7.04L176.821 10.5539L176.832 10.5482L176.843 10.5423L174.91 7.04ZM200.758 13.808L202.584 17.3673L206.084 15.572L204.347 12.042L200.758 13.808ZM195.142 16.688L191.814 18.9068L193.793 21.8752L196.968 20.2473L195.142 16.688ZM190.678 12.152L188.46 15.4802L188.517 15.5187L188.576 15.5552L190.678 12.152ZM175.99 13.808L178.757 16.6972V16.6972L175.99 13.808ZM171.31 21.44L167.474 20.3079L167.468 20.3287L167.462 20.3496L171.31 21.44ZM173.758 45.056L170.35 47.1501L170.356 47.1593L170.362 47.1685L173.758 45.056ZM195.43 44.552L196.835 40.8067L193.73 39.6425L192.011 42.4771L195.43 44.552ZM201.19 46.712L204.834 48.3629L206.599 44.4681L202.595 42.9667L201.19 46.712ZM194.926 54.128L197.118 57.4738L197.138 57.4607L197.158 57.4474L194.926 54.128ZM184.486 52.864C181.393 52.864 178.843 52.237 176.724 51.1043L172.953 58.1597C176.401 60.003 180.284 60.864 184.486 60.864V52.864ZM176.724 51.1043C174.524 49.9286 172.875 48.3862 171.682 46.4698L164.891 50.6982C166.865 53.8698 169.585 56.3594 172.953 58.1597L176.724 51.1043ZM171.682 46.4698C170.318 44.2797 169.3 41.897 168.631 39.3045L160.885 41.3035C161.752 44.663 163.086 47.8003 164.891 50.6982L171.682 46.4698ZM168.631 39.3045C167.955 36.6838 167.606 33.8539 167.606 30.8H159.606C159.606 34.4661 160.026 37.9722 160.885 41.3035L168.631 39.3045ZM167.606 30.8C167.606 27.7992 167.954 24.9928 168.631 22.3675L160.885 20.3685C160.027 23.6952 159.606 27.1768 159.606 30.8H167.606ZM168.62 22.4101C169.337 19.7523 170.38 17.367 171.736 15.2313L164.981 10.9447C163.168 13.801 161.811 16.9357 160.896 20.3259L168.62 22.4101ZM171.725 15.2478C172.982 13.2882 174.658 11.7305 176.821 10.5539L172.999 3.52606C169.691 5.32554 166.998 7.7998 164.992 10.9282L171.725 15.2478ZM176.843 10.5423C178.96 9.37394 181.471 8.736 184.486 8.736V0.735999C180.301 0.735999 176.428 1.63406 172.978 3.53769L176.843 10.5423ZM184.486 8.736C187.919 8.736 190.533 9.39514 192.51 10.4977C194.452 11.5799 196.008 13.2139 197.169 15.574L204.347 12.042C202.533 8.35409 199.889 5.45213 196.406 3.51029C192.96 1.58885 188.925 0.735999 184.486 0.735999V8.736ZM198.933 10.2487L193.317 13.1287L196.968 20.2473L202.584 17.3673L198.933 10.2487ZM198.471 14.4692C196.889 12.0967 195.012 10.1274 192.78 8.74881L188.576 15.5552C189.608 16.1926 190.708 17.2473 191.814 18.9068L198.471 14.4692ZM192.897 8.8238C190.469 7.20484 187.56 6.568 184.486 6.568V14.568C186.501 14.568 187.72 14.9872 188.46 15.4802L192.897 8.8238ZM184.486 6.568C180.15 6.568 176.296 7.97788 173.224 10.9188L178.757 16.6972C180.197 15.3181 182.006 14.568 184.486 14.568V6.568ZM173.224 10.9188C170.476 13.5495 168.54 16.6949 167.474 20.3079L175.147 22.5721C175.809 20.3291 176.992 18.3865 178.757 16.6972L173.224 10.9188ZM167.462 20.3496C166.534 23.6247 166.086 27.1157 166.086 30.8H174.086C174.086 27.7643 174.455 25.0153 175.159 22.5304L167.462 20.3496ZM166.086 30.8C166.086 36.9243 167.45 42.4303 170.35 47.1501L177.166 42.9619C175.17 39.7137 174.086 35.7157 174.086 30.8H166.086ZM170.362 47.1685C173.553 52.2995 178.425 54.96 184.486 54.96V46.96C181.14 46.96 178.86 45.6845 177.155 42.9435L170.362 47.1685ZM184.486 54.96C190.691 54.96 195.588 52.0039 198.85 46.6269L192.011 42.4771C190.089 45.6441 187.69 46.96 184.486 46.96V54.96ZM194.026 48.2973L199.786 50.4573L202.595 42.9667L196.835 40.8067L194.026 48.2973ZM197.547 45.0611C196.46 47.4605 194.859 49.3533 192.694 50.8086L197.158 57.4474C200.562 55.1587 203.137 52.1075 204.834 48.3629L197.547 45.0611ZM192.734 50.7822C190.75 52.0824 188.082 52.864 184.486 52.864V60.864C189.243 60.864 193.535 59.8216 197.118 57.4738L192.734 50.7822ZM236.271 56H232.271V60H236.271V56ZM236.271 32.816H240.271V28.816H236.271V32.816ZM212.511 32.816V28.816H208.511V32.816H212.511ZM212.511 56V60H216.511V56H212.511ZM206.247 56H202.247V60H206.247V56ZM206.247 5.6V1.6H202.247V5.6H206.247ZM212.511 5.6H216.511V1.6H212.511V5.6ZM212.511 26.912H208.511V30.912H212.511V26.912ZM236.271 26.912V30.912H240.271V26.912H236.271ZM236.271 5.6V1.6H232.271V5.6H236.271ZM242.535 5.6H246.535V1.6H242.535V5.6ZM242.535 56V60H246.535V56H242.535ZM240.271 56V32.816H232.271V56H240.271ZM236.271 28.816H212.511V36.816H236.271V28.816ZM208.511 32.816V56H216.511V32.816H208.511ZM212.511 52H206.247V60H212.511V52ZM210.247 56V5.6H202.247V56H210.247ZM206.247 9.6H212.511V1.6H206.247V9.6ZM208.511 5.6V26.912H216.511V5.6H208.511ZM212.511 30.912H236.271V22.912H212.511V30.912ZM240.271 26.912V5.6H232.271V26.912H240.271ZM236.271 9.6H242.535V1.6H236.271V9.6ZM238.535 5.6V56H246.535V5.6H238.535ZM242.535 52H236.271V60H242.535V52ZM250.524 56H246.524V60H250.524V56ZM250.524 5.6V1.6H246.524V5.6H250.524ZM280.476 5.6H284.476V1.6H280.476V5.6ZM280.476 11.504V15.504H284.476V11.504H280.476ZM256.788 11.504V7.504H252.788V11.504H256.788ZM256.788 26.984H252.788V30.984H256.788V26.984ZM272.412 26.984H276.412V22.984H272.412V26.984ZM272.412 32.888V36.888H276.412V32.888H272.412ZM256.788 32.888V28.888H252.788V32.888H256.788ZM256.788 50.024H252.788V54.024H256.788V50.024ZM282.06 50.024H286.06V46.024H282.06V50.024ZM282.06 56V60H286.06V56H282.06ZM254.524 56V5.6H246.524V56H254.524ZM250.524 9.6H280.476V1.6H250.524V9.6ZM276.476 5.6V11.504H284.476V5.6H276.476ZM280.476 7.504H256.788V15.504H280.476V7.504ZM252.788 11.504V26.984H260.788V11.504H252.788ZM256.788 30.984H272.412V22.984H256.788V30.984ZM268.412 26.984V32.888H276.412V26.984H268.412ZM272.412 28.888H256.788V36.888H272.412V28.888ZM252.788 32.888V50.024H260.788V32.888H252.788ZM256.788 54.024H282.06V46.024H256.788V54.024ZM278.06 50.024V56H286.06V50.024H278.06ZM282.06 52H250.524V60H282.06V52ZM41.2716 114V118H45.2716V114H41.2716ZM35.2236 114L31.8392 116.132L33.0159 118H35.2236V114ZM12.5436 78L9.145 80.1095L9.15206 80.1208L9.1592 80.1321L12.5436 78ZM10.5276 74.472L14.1053 72.6831L6.53642 74.7381L10.5276 74.472ZM10.6716 114V118H14.6716V114H10.6716ZM4.40756 114H0.407563V118H4.40756V114ZM4.40756 63.6V59.6H0.407563V63.6H4.40756ZM10.7436 63.6L14.1394 61.4861L12.9653 59.6H10.7436V63.6ZM33.0636 99.456L36.4702 97.3596L36.4648 97.3509L36.4594 97.3421L33.0636 99.456ZM35.1516 103.2L31.5739 104.989L39.1454 102.978L35.1516 103.2ZM35.0076 63.6V59.6H31.0076V63.6H35.0076ZM41.2716 63.6H45.2716V59.6H41.2716V63.6ZM41.2716 110H35.2236V118H41.2716V110ZM38.6079 111.868L15.9279 75.8679L9.1592 80.1321L31.8392 116.132L38.6079 111.868ZM15.9421 75.8905C15.1129 74.5547 14.51 73.4926 14.1053 72.6831L6.94985 76.2608C7.50511 77.3714 8.24618 78.6613 9.145 80.1095L15.9421 75.8905ZM6.53642 74.7381C6.62948 76.134 6.67156 77.2123 6.67156 78H14.6716C14.6716 76.9637 14.6176 75.69 14.5187 74.2059L6.53642 74.7381ZM6.67156 78V114H14.6716V78H6.67156ZM10.6716 110H4.40756V118H10.6716V110ZM8.40756 114V63.6H0.407563V114H8.40756ZM4.40756 67.6H10.7436V59.6H4.40756V67.6ZM7.34774 65.7139L29.6677 101.57L36.4594 97.3421L14.1394 61.4861L7.34774 65.7139ZM29.6569 101.552C30.3665 102.705 31.0049 103.851 31.5739 104.989L38.7293 101.411C38.0502 100.053 37.2966 98.7026 36.4702 97.3596L29.6569 101.552ZM39.1454 102.978C39.0494 101.25 39.0076 100.126 39.0076 99.528H31.0076C31.0076 100.37 31.0617 101.694 31.1577 103.422L39.1454 102.978ZM39.0076 99.528V63.6H31.0076V99.528H39.0076ZM35.0076 67.6H41.2716V59.6H35.0076V67.6ZM37.2716 63.6V114H45.2716V63.6H37.2716ZM49.2472 114H45.2472V118H49.2472V114ZM49.2472 63.6V59.6H45.2472V63.6H49.2472ZM79.1992 63.6H83.1992V59.6H79.1992V63.6ZM79.1992 69.504V73.504H83.1992V69.504H79.1992ZM55.5112 69.504V65.504H51.5112V69.504H55.5112ZM55.5112 84.984H51.5112V88.984H55.5112V84.984ZM71.1353 84.984H75.1353V80.984H71.1353V84.984ZM71.1353 90.888V94.888H75.1353V90.888H71.1353ZM55.5112 90.888V86.888H51.5112V90.888H55.5112ZM55.5112 108.024H51.5112V112.024H55.5112V108.024ZM80.7832 108.024H84.7832V104.024H80.7832V108.024ZM80.7832 114V118H84.7832V114H80.7832ZM53.2472 114V63.6H45.2472V114H53.2472ZM49.2472 67.6H79.1992V59.6H49.2472V67.6ZM75.1992 63.6V69.504H83.1992V63.6H75.1992ZM79.1992 65.504H55.5112V73.504H79.1992V65.504ZM51.5112 69.504V84.984H59.5112V69.504H51.5112ZM55.5112 88.984H71.1353V80.984H55.5112V88.984ZM67.1353 84.984V90.888H75.1353V84.984H67.1353ZM71.1353 86.888H55.5112V94.888H71.1353V86.888ZM51.5112 90.888V108.024H59.5112V90.888H51.5112ZM55.5112 112.024H80.7832V104.024H55.5112V112.024ZM76.7832 108.024V114H84.7832V108.024H76.7832ZM80.7832 110H49.2472V118H80.7832V110ZM86.3559 114H82.3559V118H86.3559V114ZM86.3559 63.6V59.6H82.3559V63.6H86.3559ZM92.6199 63.6H96.6199V59.6H92.6199V63.6ZM92.6199 114V118H96.6199V114H92.6199ZM90.3559 114V63.6H82.3559V114H90.3559ZM86.3559 67.6H92.6199V59.6H86.3559V67.6ZM88.6199 63.6V114H96.6199V63.6H88.6199ZM92.6199 110H86.3559V118H92.6199V110ZM110.179 112.704L108.293 116.232L108.329 116.251L108.366 116.27L110.179 112.704ZM103.483 106.728L100.135 108.917L100.15 108.939L100.165 108.962L103.483 106.728ZM99.8109 98.448L95.9491 99.4901L99.8109 98.448ZM99.8829 79.224L103.729 80.3229L103.731 80.3149L103.734 80.307L99.8829 79.224ZM103.699 70.944L106.997 73.2074L107.007 73.1925L107.017 73.1775L103.699 70.944ZM110.395 64.968L108.534 61.427L108.522 61.4336L108.509 61.4403L110.395 64.968ZM130.051 65.112L127.878 68.4703L127.893 68.4799L127.908 68.4893L130.051 65.112ZM136.315 71.592L138.314 75.0567L141.875 73.0023L139.724 69.4989L136.315 71.592ZM130.699 74.832L127.396 77.0878L129.487 80.1494L132.698 78.2967L130.699 74.832ZM126.235 70.296L123.994 73.6091L124.028 73.632L124.062 73.6543L126.235 70.296ZM114.139 69.864L112.431 66.247L114.139 69.864ZM109.891 73.104L112.936 75.6979L112.959 75.6706L112.982 75.643L109.891 73.104ZM107.083 77.712L103.412 76.1244L103.393 76.1666L103.376 76.2092L107.083 77.712ZM105.499 83.184L101.562 82.4773L101.554 82.5187L101.548 82.5602L105.499 83.184ZM108.811 103.128L105.445 105.289L105.451 105.298L105.457 105.308L108.811 103.128ZM128.179 105.72L131.04 108.516L131.055 108.5L131.071 108.483L128.179 105.72ZM131.275 95.28H135.275V91.28H131.275V95.28ZM122.131 95.28H118.131V99.28H122.131V95.28ZM122.131 89.52V85.52H118.131V89.52H122.131ZM137.827 89.52H141.827V85.52H137.827V89.52ZM132.787 109.824L129.939 107.016L129.938 107.016L132.787 109.824ZM119.971 110.864C116.802 110.864 114.177 110.25 111.992 109.138L108.366 116.27C111.845 118.038 115.748 118.864 119.971 118.864V110.864ZM112.064 109.176C109.827 107.981 108.098 106.422 106.801 104.494L100.165 108.962C102.227 112.026 104.963 114.451 108.293 116.232L112.064 109.176ZM106.831 104.539C105.441 102.413 104.385 100.044 103.673 97.4059L95.9491 99.4901C96.8693 102.9 98.261 106.051 100.135 108.917L106.831 104.539ZM103.673 97.4059C102.956 94.7501 102.587 91.8868 102.587 88.8H94.5869C94.5869 92.5292 95.0337 96.0979 95.9491 99.4901L103.673 97.4059ZM102.587 88.8C102.587 85.7863 102.974 82.9659 103.729 80.3229L96.0368 78.1251C95.064 81.5301 94.5869 85.0937 94.5869 88.8H102.587ZM103.734 80.307C104.488 77.6245 105.582 75.2687 106.997 73.2074L100.401 68.6806C98.4555 71.5153 97.0059 74.6795 96.0323 78.141L103.734 80.307ZM107.017 73.1775C108.314 71.2503 110.043 69.6914 112.28 68.4957L108.509 61.4403C105.179 63.2206 102.443 65.6457 100.381 68.7105L107.017 73.1775ZM112.255 68.509C114.453 67.3546 116.994 66.736 119.971 66.736V58.736C115.843 58.736 112.001 59.6054 108.534 61.427L112.255 68.509ZM119.971 66.736C123.81 66.736 126.313 67.4574 127.878 68.4703L132.224 61.7537C128.893 59.5986 124.675 58.736 119.971 58.736V66.736ZM127.908 68.4893C129.846 69.7197 131.517 71.4224 132.906 73.6851L139.724 69.4989C137.753 66.2896 135.247 63.6723 132.194 61.7347L127.908 68.4893ZM134.316 68.1273L128.7 71.3673L132.698 78.2967L138.314 75.0567L134.316 68.1273ZM134.002 72.5762C132.424 70.2657 130.575 68.3398 128.408 66.9377L124.062 73.6543C125.159 74.3642 126.286 75.4623 127.396 77.0878L134.002 72.5762ZM128.476 66.9829C126.014 65.3173 123.083 64.64 119.971 64.64V72.64C121.947 72.64 123.192 73.0667 123.994 73.6091L128.476 66.9829ZM119.971 64.64C117.298 64.64 114.759 65.1478 112.431 66.247L115.847 73.481C116.975 72.9482 118.324 72.64 119.971 72.64V64.64ZM112.431 66.247C110.221 67.2904 108.315 68.7203 106.8 70.565L112.982 75.643C113.674 74.7997 114.601 74.0696 115.847 73.481L112.431 66.247ZM106.846 70.5101C105.452 72.1466 104.316 74.0326 103.412 76.1244L110.754 79.2996C111.386 77.8394 112.122 76.6534 112.936 75.6979L106.846 70.5101ZM103.376 76.2092C102.553 78.2399 101.947 80.3306 101.562 82.4773L109.436 83.8907C109.723 82.2934 110.173 80.7361 110.79 79.2148L103.376 76.2092ZM101.548 82.5602C101.226 84.5985 101.067 86.6794 101.067 88.8H109.067C109.067 87.0807 109.196 85.4175 109.45 83.8078L101.548 82.5602ZM101.067 88.8C101.067 95.0564 102.45 100.624 105.445 105.289L112.177 100.967C110.18 97.8559 109.067 93.8717 109.067 88.8H101.067ZM105.457 105.308C108.758 110.387 113.801 112.888 119.971 112.888V104.888C116.253 104.888 113.856 103.549 112.165 100.948L105.457 105.308ZM119.971 112.888C124.275 112.888 128.106 111.518 131.04 108.516L125.318 102.924C124.124 104.146 122.482 104.888 119.971 104.888V112.888ZM131.071 108.483C133.958 105.463 135.275 101.608 135.275 97.296H127.275C127.275 99.8961 126.528 101.657 125.287 102.957L131.071 108.483ZM135.275 97.296V95.28H127.275V97.296H135.275ZM131.275 91.28H122.131V99.28H131.275V91.28ZM126.131 95.28V89.52H118.131V95.28H126.131ZM122.131 93.52H137.827V85.52H122.131V93.52ZM133.827 89.52V95.568H141.827V89.52H133.827ZM133.827 95.568C133.827 100.914 132.373 104.546 129.939 107.016L135.635 112.632C139.921 108.286 141.827 102.414 141.827 95.568H133.827ZM129.938 107.016C127.463 109.527 124.26 110.864 119.971 110.864V118.864C126.146 118.864 131.486 116.841 135.636 112.632L129.938 107.016ZM144.18 114H140.18V118H144.18V114ZM144.18 63.6V59.6H140.18V63.6H144.18ZM174.132 63.6H178.132V59.6H174.132V63.6ZM174.132 69.504V73.504H178.132V69.504H174.132ZM150.444 69.504V65.504H146.444V69.504H150.444ZM150.444 84.984H146.444V88.984H150.444V84.984ZM166.068 84.984H170.068V80.984H166.068V84.984ZM166.068 90.888V94.888H170.068V90.888H166.068ZM150.444 90.888V86.888H146.444V90.888H150.444ZM150.444 108.024H146.444V112.024H150.444V108.024ZM175.716 108.024H179.716V104.024H175.716V108.024ZM175.716 114V118H179.716V114H175.716ZM148.18 114V63.6H140.18V114H148.18ZM144.18 67.6H174.132V59.6H144.18V67.6ZM170.132 63.6V69.504H178.132V63.6H170.132ZM174.132 65.504H150.444V73.504H174.132V65.504ZM146.444 69.504V84.984H154.444V69.504H146.444ZM150.444 88.984H166.068V80.984H150.444V88.984ZM162.068 84.984V90.888H170.068V84.984H162.068ZM166.068 86.888H150.444V94.888H166.068V86.888ZM146.444 90.888V108.024H154.444V90.888H146.444ZM150.444 112.024H175.716V104.024H150.444V112.024ZM171.716 108.024V114H179.716V108.024H171.716ZM175.716 110H144.18V118H175.716V110Z" fill="black"/>
</svg>
